<!-- No longer the source for assets/images/{large,small}.png -- Homey's
     certification review asked for a genuine lifestyle photo instead of
     an illustration, so those PNGs are now a cropped real photo (see
     README's "Image credits" section for the license/attribution).
     Kept here for reference/history only. -->
<svg xmlns="http://www.w3.org/2000/svg" viewBox="0 0 500 350">
  <rect x="0" y="0" width="500" height="350" fill="#4B3621"/>

  <g fill="#FFFFFF" opacity="0.16">
    <g transform="translate(95,85) rotate(20)">
      <ellipse cx="0" cy="0" rx="24" ry="15"/>
      <path d="M0 -13 Q7 -6 0 0 Q-7 6 0 13" stroke="#4B3621" stroke-width="3.5" fill="none" stroke-linecap="round"/>
    </g>
    <g transform="translate(388,95) rotate(-35) scale(1.15)">
      <ellipse cx="0" cy="0" rx="24" ry="15"/>
      <path d="M0 -13 Q7 -6 0 0 Q-7 6 0 13" stroke="#4B3621" stroke-width="3.5" fill="none" stroke-linecap="round"/>
    </g>
    <g transform="translate(125,268) rotate(-12)">
      <ellipse cx="0" cy="0" rx="24" ry="15"/>
      <path d="M0 -13 Q7 -6 0 0 Q-7 6 0 13" stroke="#4B3621" stroke-width="3.5" fill="none" stroke-linecap="round"/>
    </g>
    <g transform="translate(365,272) rotate(28) scale(0.9)">
      <ellipse cx="0" cy="0" rx="24" ry="15"/>
      <path d="M0 -13 Q7 -6 0 0 Q-7 6 0 13" stroke="#4B3621" stroke-width="3.5" fill="none" stroke-linecap="round"/>
    </g>
    <g transform="translate(255,55) rotate(8) scale(0.75)">
      <ellipse cx="0" cy="0" rx="24" ry="15"/>
      <path d="M0 -13 Q7 -6 0 0 Q-7 6 0 13" stroke="#4B3621" stroke-width="3.5" fill="none" stroke-linecap="round"/>
    </g>
  </g>

  <g transform="translate(202.5,161)" fill="#FFFFFF">
    <rect x="0" y="0" width="76" height="66" rx="10"/>
    <path d="M76 14 a19 19 0 0 1 0 40" stroke="#FFFFFF" stroke-width="8" fill="none" stroke-linecap="round"/>
  </g>
  <g transform="translate(202.5,161)" stroke="#F3EFEA" stroke-width="6" stroke-linecap="round" fill="none" opacity="0.9">
    <path d="M20 -10 q8 -8 0 -16 q-8 -8 0 -16"/>
    <path d="M38 -10 q8 -8 0 -16 q-8 -8 0 -16"/>
    <path d="M56 -10 q8 -8 0 -16 q-8 -8 0 -16"/>
  </g>
</svg>
